<svg 
  xmlns="http://www.w3.org/2000/svg"
  viewBox="0 0 100 100"
  width="100"
  height="100"
>
  <rect width="100" height="100" rx="15" fill="#8A2BE2" fillOpacity="0.1" />
  <path d="M25,30 L75,30 C80,30 85,35 85,40 L85,70 C85,75 80,80 75,80 L25,80 C20,80 15,75 15,70 L15,40 C15,35 20,30 25,30 Z" fill="none" stroke="#8A2BE2" strokeWidth="4" />
  <circle cx="50" cy="38" r="4" fill="#8A2BE2" />
  <path d="M50,38 L50,45" stroke="#8A2BE2" strokeWidth="4" strokeLinecap="round" />
  <path d="M30,45 L70,45" stroke="#8A2BE2" strokeWidth="4" strokeLinecap="round" />
  <path d="M35,45 L40,75 M65,45 L60,75" stroke="#8A2BE2" strokeWidth="4" strokeLinecap="round" />
  <path d="M40,75 L60,75" stroke="#8A2BE2" strokeWidth="4" strokeLinecap="round" />
</svg>