<svg xmlns="http://www.w3.org/2000/svg" viewBox="0 0 100 100" width="100" height="100">
  <style>
    path { fill: #8A2BE2; }
    @media (prefers-color-scheme: dark) {
      path { fill: #B76EF2; }
    }
  </style>
  <rect width="100" height="100" rx="20" fill="#FFFFFF" />
  <path d="M35,30 C35,30 40,30 45,30 C50,30 55,35 55,40 C55,45 50,50 45,50 L35,50 Z" />
  <path d="M35,50 L45,50 C50,50 55,55 55,60 C55,65 50,70 45,70 L35,70 Z" />
  <path d="M60,30 L60,70 L65,70 C70,70 75,65 75,60 L75,40 C75,35 70,30 65,30 Z" />
</svg>